<?xml version="1.0" standalone="no"?><svg xmlns="http://www.w3.org/2000/svg" viewBox="0 0 1440 320"><path fill="#ff304f" fill-opacity="1" d="M0,288L18.5,288C36.9,288,74,288,111,250.7C147.7,213,185,139,222,117.3C258.5,96,295,128,332,138.7C369.2,149,406,139,443,133.3C480,128,517,128,554,149.3C590.8,171,628,213,665,192C701.5,171,738,85,775,85.3C812.3,85,849,171,886,170.7C923.1,171,960,85,997,53.3C1033.8,21,1071,43,1108,96C1144.6,149,1182,235,1218,256C1255.4,277,1292,235,1329,229.3C1366.2,224,1403,256,1422,272L1440,288L1440,320L1421.5,320C1403.1,320,1366,320,1329,320C1292.3,320,1255,320,1218,320C1181.5,320,1145,320,1108,320C1070.8,320,1034,320,997,320C960,320,923,320,886,320C849.2,320,812,320,775,320C738.5,320,702,320,665,320C627.7,320,591,320,554,320C516.9,320,480,320,443,320C406.2,320,369,320,332,320C295.4,320,258,320,222,320C184.6,320,148,320,111,320C73.8,320,37,320,18,320L0,320Z"></path></svg>